<svg width="278" height="65" viewBox="0 0 278 65" fill="none" xmlns="http://www.w3.org/2000/svg">
<g clip-path="url(#clip0_406_144)">
<path d="M86.2218 64.4933V62.7644C86.0519 62.9333 85.882 63.0824 85.6822 63.2314C85.0427 63.7481 83.6838 64.5529 81.6254 64.8311C81.0658 64.9205 80.4863 64.9404 79.9467 64.9404C76.7293 64.9404 74.9407 64.0859 73.8016 63.2513C72.9223 62.6154 71.5434 61.433 71.0138 58.8497C70.9538 58.5318 70.804 57.7568 70.804 56.8824C70.804 54.1501 72.1829 52.2921 72.8423 51.5866C73.252 51.1594 73.7916 50.7322 74.2812 50.4142C76.1897 49.2219 78.278 48.894 80.4863 48.894C81.5155 48.894 85.5323 48.9139 88.1103 51.7357C88.5399 52.2325 88.7997 52.6299 89.1195 53.1863L84.9328 53.7626C84.8428 53.6533 84.4831 53.2062 84.0934 52.8684C83.0842 52.0139 81.6853 51.6959 80.3364 51.6959C78.4879 51.6959 76.5394 52.3616 75.5102 53.9812C75.2105 54.4482 74.7109 55.5013 74.7109 56.9321C74.7109 57.2699 74.7309 58.1045 75.1006 59.0286C76.2796 62.0391 79.587 62.1881 80.4663 62.1881C82.115 62.1881 84.0934 61.6317 85.2325 60.35C85.7022 59.8135 85.8321 59.3862 85.942 59.1279H80.9859V56.4154H89.1195V64.4833H86.2218V64.4933Z" fill="#4FA271"/>
<path d="M94.2654 64.4933V49.4207H98.0624V61.7212H106.476V64.4933H94.2554H94.2654Z" fill="#4FA271"/>
<path d="M127.789 58.7305C127.599 59.734 126.989 61.9099 124.691 63.45C123.642 64.1355 121.704 64.99 118.696 64.99C114.19 64.99 111.801 63.1718 110.712 61.5721C110.193 60.8468 109.363 59.267 109.363 56.9619C109.363 53.4844 111.062 51.6661 112.171 50.8116C113.82 49.5498 116.038 49.0431 118.077 48.9536C119.965 48.894 122.243 49.1921 123.942 50.0168C124.182 50.1459 124.611 50.3546 125.141 50.7421C125.571 51.06 126 51.4475 126.34 51.8748C126.979 52.62 127.949 54.2892 127.949 56.8029C127.949 57.101 127.949 57.8959 127.779 58.7205L127.789 58.7305ZM122.743 53.3055C121.694 52.153 120.055 51.6164 118.486 51.6661C118.146 51.686 117.237 51.7555 116.298 52.153C113.49 53.3949 113.27 56.0577 113.27 57.0613C113.27 57.3593 113.29 58.343 113.68 59.2372C113.79 59.5154 113.92 59.7936 114.26 60.2606C114.369 60.3898 114.649 60.7971 115.029 61.1151C115.628 61.6317 116.788 62.2676 118.656 62.2676C118.996 62.2676 119.905 62.2477 120.844 61.9C123.832 60.8369 124.082 57.9058 124.082 56.9718C124.082 56.3359 123.992 54.6866 122.733 53.2956L122.743 53.3055Z" fill="#4FA271"/>
<path d="M147.843 62.6551C146.644 64.4933 144.706 64.4933 143.207 64.4933H132.795V49.4207H142.627C143.786 49.4207 145.745 49.4207 146.884 50.6626C147.553 51.3879 147.743 52.302 147.743 53.0373C147.783 55.2331 146.304 55.9882 145.235 56.326C146.354 56.5844 148.502 57.2898 148.522 60.1314C148.522 61.3237 148.183 62.1981 147.853 62.675L147.843 62.6551ZM142.277 52.0238H136.542V55.3325H141.978C142.297 55.3325 144.086 55.5212 144.086 53.6632C144.086 51.994 142.757 52.0238 142.277 52.0238ZM142.707 57.9654H136.542V61.8503H142.387C142.987 61.8503 144.725 61.8901 144.725 59.8036C144.725 57.9853 143.267 57.9654 142.707 57.9654Z" fill="#4FA271"/>
<path d="M166.139 64.4933L164.85 61.6516H157.076L155.787 64.4933H151.64L158.964 49.4207H163.061L170.385 64.4933H166.129H166.139ZM160.983 53.087L158.295 58.9789H163.621L160.983 53.087Z" fill="#4FA271"/>
<path d="M174.232 64.4933V49.4207H178.029V61.7212H186.442V64.4933H174.222H174.232Z" fill="#4FA271"/>
<path d="M158.834 15.3806C157.415 14.0095 155.717 12.9364 153.748 12.1515C151.78 11.3765 149.632 10.989 147.303 10.989C144.975 10.989 142.797 11.3765 140.838 12.1515C138.88 12.9265 137.201 13.9996 135.792 15.3806C134.384 16.7518 133.284 18.3614 132.495 20.2094C131.706 22.0575 131.306 24.0447 131.306 26.1809C131.306 28.317 131.706 30.3042 132.495 32.1523C133.284 34.0003 134.384 35.6099 135.792 36.9811C137.201 38.3522 138.88 39.4253 140.838 40.2102C142.797 40.9852 144.955 41.3727 147.303 41.3727C149.652 41.3727 151.78 40.9852 153.748 40.2102C155.717 39.4352 157.415 38.3621 158.834 36.9811C160.253 35.6099 161.362 34.0003 162.152 32.1523C162.941 30.3042 163.341 28.317 163.341 26.1809C163.341 24.0447 162.941 22.0575 162.152 20.2094C161.362 18.3614 160.253 16.7518 158.834 15.3806ZM154.827 29.3504C154.388 30.3141 153.798 31.1587 153.039 31.8741C152.279 32.5894 151.41 33.1458 150.431 33.5333C149.442 33.9308 148.403 34.1196 147.303 34.1196C146.204 34.1196 145.165 33.9208 144.176 33.5333C143.187 33.1359 142.327 32.5894 141.588 31.8741C140.848 31.1587 140.259 30.3241 139.819 29.3504C139.38 28.3866 139.17 27.3235 139.17 26.1809C139.17 25.0382 139.39 23.985 139.819 23.0113C140.259 22.0476 140.838 21.203 141.588 20.4876C142.327 19.7723 143.197 19.2258 144.176 18.8284C145.165 18.4309 146.204 18.2322 147.303 18.2322C148.403 18.2322 149.442 18.4309 150.431 18.8284C151.42 19.2258 152.289 19.7723 153.039 20.4876C153.788 21.203 154.388 22.0376 154.827 23.0113C155.267 23.9751 155.477 25.0382 155.477 26.1809C155.477 27.3235 155.257 28.3767 154.827 29.3504ZM116.837 22.902H105.976V11.7938H98.452V40.5679H105.976V28.6946H116.837V40.5679H124.362V11.7839H116.837V22.8921V22.902ZM81.8552 11.7938H69.8846V40.5679H77.4087V31.0295H81.8652C85.1126 31.0295 87.6006 30.1949 89.3293 28.5058C91.0579 26.8267 91.9172 24.462 91.9172 21.4117C91.9172 18.3614 91.0579 15.9967 89.3293 14.3175C87.6006 12.6384 85.1126 11.7938 81.8652 11.7938H81.8552ZM79.8967 24.9985H77.3987V17.8248H79.8967C82.6645 17.8248 84.0434 19.0171 84.0434 21.4117C84.0434 23.8062 82.6645 24.9985 79.8967 24.9985ZM171.444 40.5679H187.911V34.2288H178.968V29.2709H187.412V22.9318H178.968V18.1229H187.911V11.7839H171.444V40.558V40.5679ZM234.374 40.5679H241.898V11.7938H234.374V40.5679ZM267.218 25.227L276.771 11.7938H267.478L262.642 19.2357L258.725 11.7938H249.443L258.465 25.227L247.144 40.5679H256.237L263.032 31.1786L268.827 40.5679H278L267.218 25.227ZM217.868 29.3901L203.979 11.7938H196.454V40.5679H203.979V22.9716L217.868 40.5679H225.352V11.7938H217.868V29.3901Z" fill="#2E3243"/>
<path d="M42.0367 65H58.8634L39.089 36.8618L56.6152 12.231H46.2434C42.0867 12.231 38.2197 14.3274 35.9615 17.795L2.26819 65H18.955L31.4151 47.7812L42.0467 65H42.0367Z" fill="#2E3243"/>
<path d="M9.62244 0C5.59563 2.78202 4.60641 8.28646 7.4042 12.2906L22.3024 33.6824L27.6782 26.161L9.62244 0Z" fill="#8AC04F"/>
<path d="M15.0781 43.012L20.4638 35.4608L6.0752 14.6056C2.04839 17.3876 1.05917 22.892 3.85696 26.8962L15.0681 43.0021L15.0781 43.012Z" fill="#4FA271"/>
<path d="M8.13359 52.7293L13.5393 45.1483L3.80701 31.0394C-0.2198 33.8215 -1.20902 39.3259 1.58877 43.33L8.13359 52.7293Z" fill="#008987"/>
</g>
<defs>
<clipPath id="clip0_406_144">
<rect width="278" height="65" fill="white"/>
</clipPath>
</defs>
</svg>
